<svg xmlns="http://www.w3.org/2000/svg" version="1.1" xmlns:xlink="http://www.w3.org/1999/xlink" xmlns:svgjs="http://svgjs.dev/svgjs" width="1500" height="867" viewBox="0 0 1500 867"><g transform="matrix(1,0,0,1,-0.9090909090909918,0.24692456610478075)"><svg viewBox="0 0 396 229" data-background-color="#000000" preserveAspectRatio="xMidYMid meet" height="867" width="1500" xmlns="http://www.w3.org/2000/svg" xmlns:xlink="http://www.w3.org/1999/xlink"><g id="tight-bounds" transform="matrix(1,0,0,1,0.2400000000000091,-0.06521998343482949)"><svg viewBox="0 0 395.52 229.13043996686966" height="229.13043996686966" width="395.52"><g><svg viewBox="0 0 395.52 229.13043996686966" height="229.13043996686966" width="395.52"><g transform="matrix(1,0,0,1,0,141.61180415688185)"><svg viewBox="0 0 395.52 87.51863580998781" height="87.51863580998781" width="395.52"><g id="textblocktransform"><svg viewBox="0 0 395.52 87.51863580998781" height="87.51863580998781" width="395.52" id="textblock"><g><svg viewBox="0 0 395.52 87.51863580998781" height="87.51863580998781" width="395.52"><g transform="matrix(1,0,0,1,0,0)"><svg width="395.52" viewBox="2 -41.5 246.28 54.5" height="87.51863580998781" data-palette-color="#ffffff"><path d="M5-23.35L2-23.35 2-25.2Q4.65-26.75 6.15-28.3 7.65-29.85 8.45-32L8.45-32 9.9-32 9.9-25.7 16.6-25.7 16.6-23.35 9.9-23.35 9.9-8.15Q9.9-6.4 10.08-5.2 10.25-4 10.65-3.28 11.05-2.55 11.7-2.25 12.35-1.95 13.35-1.95L13.35-1.95Q14.6-1.95 15.48-2.48 16.35-3 17.2-4.25L17.2-4.25 18.45-3.3Q17.75-1.45 16.03-0.48 14.3 0.5 11.75 0.5L11.75 0.5Q8.45 0.5 6.73-1.07 5-2.65 5-5.6L5-5.6 5-23.35ZM43.45-6.05L45-4.65Q40.75 0.5 34.45 0.5L34.45 0.5Q31.5 0.5 29.1-0.48 26.7-1.45 24.97-3.23 23.25-5 22.3-7.48 21.35-9.95 21.35-12.95L21.35-12.95Q21.35-16 22.35-18.6 23.35-21.2 25.17-23.05 27-24.9 29.52-25.95 32.05-27 35.05-27L35.05-27Q39.9-27 42.55-24.38 45.2-21.75 45.2-16.85L45.2-16.85Q45.2-16.15 44.92-16 44.65-15.85 43.65-15.85L43.65-15.85 27.2-15.85Q27.1-15.45 27.05-14.88 27-14.3 27-13.6L27-13.6Q27-11 27.62-8.88 28.25-6.75 29.42-5.25 30.6-3.75 32.22-2.93 33.85-2.1 35.85-2.1L35.85-2.1Q37.95-2.1 39.75-3.03 41.55-3.95 43.45-6.05L43.45-6.05ZM27.55-18.15L36.75-18.15Q37.75-18.15 38.35-18.2 38.95-18.25 39.25-18.4 39.55-18.55 39.65-18.82 39.75-19.1 39.75-19.55L39.75-19.55Q39.75-21.85 38.27-23.23 36.8-24.6 34.25-24.6L34.25-24.6Q28.85-24.6 27.55-18.15L27.55-18.15ZM58-41.5L58-7.8Q58-5.9 58.15-4.75 58.3-3.6 58.77-2.95 59.25-2.3 60.12-2.05 61-1.8 62.45-1.75L62.45-1.75 62.45 0 48.65 0 48.65-1.75Q50.15-1.8 51.05-2.08 51.95-2.35 52.47-2.95 53-3.55 53.17-4.63 53.34-5.7 53.34-7.45L53.34-7.45 53.34-29Q53.34-31.7 53.27-33.52 53.2-35.35 53.05-36L53.05-36Q52.8-37.15 51.87-37.55 50.95-37.95 48.55-37.95L48.55-37.95 48.55-39.65 58-41.5ZM88.34-6.05L89.89-4.65Q85.64 0.5 79.34 0.5L79.34 0.5Q76.39 0.5 73.99-0.48 71.59-1.45 69.87-3.23 68.14-5 67.19-7.48 66.24-9.95 66.24-12.95L66.24-12.95Q66.24-16 67.24-18.6 68.24-21.2 70.07-23.05 71.89-24.9 74.42-25.95 76.94-27 79.94-27L79.94-27Q84.79-27 87.44-24.38 90.09-21.75 90.09-16.85L90.09-16.85Q90.09-16.15 89.82-16 89.54-15.85 88.54-15.85L88.54-15.85 72.09-15.85Q71.99-15.45 71.94-14.88 71.89-14.3 71.89-13.6L71.89-13.6Q71.89-11 72.52-8.88 73.14-6.75 74.32-5.25 75.49-3.75 77.12-2.93 78.74-2.1 80.74-2.1L80.74-2.1Q82.84-2.1 84.64-3.03 86.44-3.95 88.34-6.05L88.34-6.05ZM72.44-18.15L81.64-18.15Q82.64-18.15 83.24-18.2 83.84-18.25 84.14-18.4 84.44-18.55 84.54-18.82 84.64-19.1 84.64-19.55L84.64-19.55Q84.64-21.85 83.17-23.23 81.69-24.6 79.14-24.6L79.14-24.6Q73.74-24.6 72.44-18.15L72.44-18.15ZM123.09-30L129.79-7.55 137.59-29.25Q138.29-31.2 138.59-32.35 138.89-33.5 138.89-34.35L138.89-34.35Q138.89-35.65 138.07-36.13 137.24-36.6 135.14-36.6L135.14-36.6 135.14-38.5 147.29-38.5 147.29-36.6Q144.99-36.6 143.82-35.65 142.64-34.7 141.84-32.55L141.84-32.55 129.29 0.5 127.54 0.5 117.94-27.95 107.29 0.5 105.54 0.5 95.14-28.2Q94.24-30.6 93.52-32.23 92.79-33.85 91.97-34.8 91.14-35.75 90.09-36.15 89.04-36.55 87.54-36.55L87.54-36.55 87.54-38.5 103.84-38.5 103.84-36.55Q101.29-36.55 100.27-36.1 99.24-35.65 99.24-34.35L99.24-34.35Q99.24-33.7 99.44-32.85 99.64-32 100.04-30.85L100.04-30.85 107.64-7.7 113.79-25Q114.49-26.95 115.17-28.63 115.84-30.3 116.24-31.65L116.24-31.65Q115.54-33.1 114.97-34.05 114.39-35 113.82-35.55 113.24-36.1 112.62-36.33 111.99-36.55 111.29-36.55L111.29-36.55 111.29-38.5 126.59-38.5 126.59-36.55Q125.14-36.55 124.24-36.45 123.34-36.35 122.87-36.13 122.39-35.9 122.22-35.5 122.04-35.1 122.04-34.55L122.04-34.55Q122.04-33.8 122.32-32.73 122.59-31.65 123.09-30L123.09-30ZM157.89-27L157.89-7.95Q157.89-6 158.06-4.83 158.24-3.65 158.74-2.98 159.24-2.3 160.14-2.05 161.04-1.8 162.54-1.75L162.54-1.75 162.54 0 148.19 0 148.19-1.75Q149.69-1.8 150.64-2.08 151.59-2.35 152.11-2.98 152.64-3.6 152.81-4.73 152.99-5.85 152.99-7.6L152.99-7.6 152.99-14Q152.99-16.9 152.91-18.78 152.84-20.65 152.64-21.35L152.64-21.35Q152.39-22.5 151.49-22.93 150.59-23.35 148.09-23.35L148.09-23.35 148.09-25.1 157.89-27ZM152.14-37.15L152.14-37.15Q152.14-38.45 153.04-39.35 153.94-40.25 155.24-40.25L155.24-40.25Q156.54-40.25 157.44-39.35 158.34-38.45 158.34-37.15L158.34-37.15Q158.34-35.85 157.44-34.95 156.54-34.05 155.24-34.05L155.24-34.05Q153.94-34.05 153.04-34.95 152.14-35.85 152.14-37.15ZM174.34-14.55L174.34-7.85Q174.34-5.8 174.44-4.63 174.54-3.45 174.96-2.83 175.39-2.2 176.21-2 177.04-1.8 178.49-1.7L178.49-1.7 178.49 0 165.39 0 165.39-1.7Q166.79-1.8 167.61-2 168.44-2.2 168.89-2.8 169.34-3.4 169.46-4.5 169.59-5.6 169.59-7.5L169.59-7.5 169.59-14.15Q169.59-20.1 169.29-21.4L169.29-21.4Q169.14-22.05 168.91-22.48 168.69-22.9 168.24-23.13 167.79-23.35 167.09-23.43 166.39-23.5 165.29-23.5L165.29-23.5 165.29-25.1 173.29-27 173.89-22.05 174.09-22.05Q175.99-24.4 178.54-25.7 181.09-27 184.09-27L184.09-27Q186.39-27 188.29-26.25 190.19-25.5 191.19-24.2L191.19-24.2Q192.04-23.05 192.39-21.23 192.74-19.4 192.74-16.2L192.74-16.2 192.74-7.85Q192.74-5.8 192.86-4.63 192.99-3.45 193.39-2.83 193.79-2.2 194.61-2 195.44-1.8 196.79-1.7L196.79-1.7 196.79 0 183.84 0 183.84-1.7Q185.24-1.75 186.06-1.98 186.89-2.2 187.31-2.8 187.74-3.4 187.86-4.53 187.99-5.65 187.99-7.5L187.99-7.5 187.99-14.1Q187.99-16.95 187.69-18.9 187.39-20.85 186.71-22.05 186.04-23.25 184.94-23.78 183.84-24.3 182.29-24.3L182.29-24.3Q180.04-24.3 178.16-23.13 176.29-21.95 175.24-19.9L175.24-19.9Q174.99-19.4 174.81-18.95 174.64-18.5 174.54-17.9 174.44-17.3 174.39-16.53 174.34-15.75 174.34-14.55L174.34-14.55ZM211.68-10.75L211.68-10.75Q213.78-10.75 214.96-12.65 216.13-14.55 216.13-18L216.13-18Q216.13-21.4 214.96-23.28 213.78-25.15 211.63-25.15L211.63-25.15Q209.48-25.15 208.21-23.25 206.93-21.35 206.93-18.05L206.93-18.05Q206.93-14.75 208.23-12.75 209.53-10.75 211.68-10.75ZM208.93-4.9L208.93-4.9Q210.13-4.8 211.13-4.7 212.13-4.6 213.11-4.5 214.08-4.4 215.06-4.25 216.03-4.1 217.18-3.95L217.18-3.95Q220.78-3.4 222.96-1.18 225.13 1.05 225.13 4.4L225.13 4.4Q225.13 8.6 221.81 10.8 218.48 13 212.18 13L212.18 13Q209.38 13 207.06 12.5 204.73 12 203.08 11.08 201.43 10.15 200.51 8.85 199.58 7.55 199.58 6L199.58 6Q199.58 4.95 199.93 4.05 200.28 3.15 200.88 2.48 201.48 1.8 202.31 1.4 203.13 1 204.03 1L204.03 1Q205.73 1 207.08 2.05L207.08 2.05Q205.73 2.35 204.88 3.53 204.03 4.7 204.03 6.2L204.03 6.2Q204.03 8.4 206.21 9.6 208.38 10.8 212.38 10.8L212.38 10.8Q220.93 10.8 220.93 5.55L220.93 5.55Q220.93 3.55 219.58 2.23 218.23 0.9 216.38 0.65L216.38 0.65Q215.18 0.5 213.91 0.33 212.63 0.15 211.41 0 210.18-0.15 209.13-0.25 208.08-0.35 207.43-0.45L207.43-0.45Q204.63-0.75 203.18-1.95 201.73-3.15 201.73-5.25L201.73-5.25Q201.73-7 203.18-8.35 204.63-9.7 206.83-10.05L206.83-10.05 206.83-10.25Q205.73-10.7 204.78-11.53 203.83-12.35 203.16-13.4 202.48-14.45 202.08-15.68 201.68-16.9 201.68-18.2L201.68-18.2Q201.68-20.1 202.41-21.7 203.13-23.3 204.46-24.48 205.78-25.65 207.58-26.33 209.38-27 211.53-27L211.53-27Q213.73-27 215.68-26.33 217.63-25.65 219.03-24.35L219.03-24.35Q220.73-25.75 222.03-26.38 223.33-27 224.48-27L224.48-27Q226.28-27 227.36-26.18 228.43-25.35 228.43-23.95L228.43-23.95Q228.43-23.1 227.86-22.6 227.28-22.1 226.43-22.1L226.43-22.1Q225.73-22.1 225.28-22.35 224.83-22.6 224.46-22.88 224.08-23.15 223.68-23.4 223.28-23.65 222.68-23.65L222.68-23.65Q221.48-23.65 220.23-22.8L220.23-22.8Q221.43-20.95 221.43-18.15L221.43-18.15Q221.43-13.9 218.78-11.48 216.13-9.05 210.83-8.65L210.83-8.65Q207.78-8.4 206.58-8 205.38-7.6 205.38-6.55L205.38-6.55Q205.38-5.75 206.28-5.38 207.18-5 208.93-4.9ZM233.23-1.75L232.23 0 231.13 0 231.13-8.6 232.38-8.6Q234.33-1.55 239.48-1.55L239.48-1.55Q241.48-1.55 242.66-2.53 243.83-3.5 243.83-5.5L243.83-5.5Q243.83-6.25 243.61-6.78 243.38-7.3 242.75-7.88 242.13-8.45 241-9.2 239.88-9.95 238.03-11.1L238.03-11.1Q236.33-12.15 235.08-13.05 233.83-13.95 232.98-14.88 232.13-15.8 231.71-16.85 231.28-17.9 231.28-19.3L231.28-19.3Q231.28-21 231.86-22.43 232.43-23.85 233.43-24.85 234.43-25.85 235.78-26.43 237.13-27 238.73-27L238.73-27Q240.08-27 241.53-26.58 242.98-26.15 244.08-25.45L244.08-25.45 245.08-26.5 246.03-26.5 246.03-19.3 244.73-19.3Q243.63-22.35 242.33-23.65 241.03-24.95 239.13-24.95L239.13-24.95Q237.43-24.95 236.41-24.05 235.38-23.15 235.38-21.55L235.38-21.55Q235.38-20.7 235.66-20.08 235.93-19.45 236.53-18.85 237.13-18.25 238.06-17.63 238.98-17 240.28-16.2L240.28-16.2Q242.43-14.85 243.96-13.8 245.48-12.75 246.43-11.73 247.38-10.7 247.83-9.6 248.28-8.5 248.28-7.1L248.28-7.1Q248.28-3.55 245.98-1.53 243.68 0.5 239.93 0.5L239.93 0.5Q236.03 0.5 233.23-1.75L233.23-1.75Z" opacity="1" transform="matrix(1,0,0,1,0,0)" fill="#ffffff" class="wordmark-text-0" data-fill-palette-color="primary" id="text-0"></path></svg></g></svg></g></svg></g></svg></g><g transform="matrix(1,0,0,1,137.28462265529842,0)"><svg viewBox="0 0 120.95075468940315 120.95075468940317" height="120.95075468940317" width="120.95075468940315"><g><svg></svg></g><g id="icon-0"><svg viewBox="0 0 120.95075468940315 120.95075468940317" height="120.95075468940317" width="120.95075468940315"><g><path transform="scale(1.20951,1.20951)" d="M30 100c-16.569 0-30-13.431-30-30v-40c0-16.569 13.431-30 30-30h40c16.569 0 30 13.431 30 30v40c0 16.569-13.431 30-30 30z" fill="#45af73" fill-rule="nonzero" stroke="none" stroke-width="1" stroke-linecap="butt" stroke-linejoin="miter" stroke-miterlimit="10" stroke-dasharray="" stroke-dashoffset="0" font-family="none" font-weight="none" font-size="none" text-anchor="none" style="mix-blend-mode: normal" data-fill-palette-color="accent"></path></g><g transform="matrix(1,0,0,1,24.19015093788063,31.29235905770466)"><svg viewBox="0 0 72.5704528136419 58.366036573993846" height="58.366036573993846" width="72.5704528136419"><g><svg xmlns="http://www.w3.org/2000/svg" xmlns:xlink="http://www.w3.org/1999/xlink" version="1.1" x="0" y="0" viewBox="0 9.786 100.00034525290005 80.42699999999999" enable-background="new 0 0 100 100" xml:space="preserve" id="dxe-0" width="72.5704528136419" height="58.366036573993846" class="icon-dxe-0" data-fill-palette-color="quaternary"><path d="M49.942 52.994L90.595 51.529C88.068 47.352 87.436 43.698 82.606 43.068 75.377 42.128 68.148 41.185 60.918 40.242L18.843 34.762C20.101 36.792 39.724 53.361 49.942 52.994" fill="#ffffff" data-fill-palette-color="quaternary"></path><path d="M0 9.786C4.391 17.043 26.615 32.858 32.953 33.672 50.283 35.903 67.61 38.132 84.939 40.36 81.546 34.753 80.759 31.01 74.627 29.401L47.91 22.378C31.94 18.182 15.97 13.984 0 9.786" fill="#ffffff" data-fill-palette-color="quaternary"></path><path d="M63.108 66.207L94.349 59.547C92.321 56.201 92.315 54.188 88.522 54.358 82.364 54.631 76.208 54.907 70.051 55.18 58.708 55.686 47.365 56.194 36.023 56.698 37.298 58.064 54.94 67.947 63.108 66.207" fill="#ffffff" data-fill-palette-color="quaternary"></path><path d="M87.682 90.213C93.407 86.494 94.944 82.492 98.201 76.406 101.852 69.582 99.458 68.562 95.38 61.81 94.963 61.122 89.538 62.042 88.927 62.714 88.182 63.532 88.679 68.169 88.633 69.21z" fill="#ffffff" data-fill-palette-color="quaternary"></path><path d="M86.35 63.447C82.555 64.256 77.746 63.638 76.778 67.676L72.658 84.887C81.904 82.678 86.028 71.582 86.35 63.447" fill="#ffffff" data-fill-palette-color="quaternary"></path><path d="M74.666 66.121C65.518 68.074 65.71 70.732 61.787 79.301 68.007 78.711 73.811 71.941 74.666 66.121" fill="#ffffff" data-fill-palette-color="quaternary"></path></svg></g></svg></g></svg></g></svg></g><g></g></svg></g><defs></defs></svg><rect width="395.52" height="229.13043996686966" fill="none" stroke="none" visibility="hidden"></rect></g></svg></g></svg>